<svg width="312" height="68" viewBox="0 0 312 68" fill="none" xmlns="http://www.w3.org/2000/svg">
<g clip-path="url(#clip0_10_11)">
<path d="M67.3813 48.6543C63.7391 48.6543 60.5003 47.9128 57.665 46.4297C54.8298 44.9466 52.616 42.8638 51.0239 40.1812C49.4536 37.4767 48.6685 34.3797 48.6685 30.8901C48.6685 27.4006 49.4536 24.3254 51.0239 21.6646C52.616 18.9819 54.8298 16.8991 57.665 15.416C60.5003 13.9329 63.7391 13.1914 67.3813 13.1914C70.3693 13.1914 73.0628 13.693 75.4619 14.6963C77.861 15.6995 79.8348 17.1717 81.3833 19.1128C82.9318 21.0539 83.9569 23.3984 84.4585 26.1465L74.6113 27.1279C73.7607 23.3984 71.3071 21.5337 67.2505 21.5337C65.6584 21.5337 64.2625 21.9263 63.063 22.7114C61.8853 23.4966 60.9692 24.598 60.3149 26.0156C59.6606 27.4333 59.3335 29.0581 59.3335 30.8901C59.3335 32.744 59.6606 34.3797 60.3149 35.7974C60.9692 37.215 61.8853 38.3164 63.063 39.1016C64.2625 39.8649 65.6584 40.2466 67.2505 40.2466C71.3071 40.2466 73.7607 38.3818 74.6113 34.6523L84.4585 35.6338C83.9569 38.3818 82.91 40.7373 81.3179 42.7002C79.7476 44.6413 77.7629 46.1243 75.3638 47.1494C72.9647 48.1527 70.3039 48.6543 67.3813 48.6543ZM124.959 13.8457V48H114.851L114.622 44.1396C113.684 45.6445 112.299 46.8005 110.467 47.6074C108.635 48.4144 106.574 48.8179 104.284 48.8179C101.23 48.8179 98.4495 48.109 95.9414 46.6914C93.4333 45.2738 91.4377 43.2236 89.9546 40.541C88.4715 37.8366 87.73 34.6632 87.73 31.021C87.73 27.3787 88.4715 24.2163 89.9546 21.5337C91.4377 18.8293 93.4333 16.7682 95.9414 15.3506C98.4495 13.9111 101.23 13.1914 104.284 13.1914C106.421 13.1914 108.384 13.5622 110.172 14.3037C111.961 15.0234 113.335 16.0485 114.294 17.3789V13.8457H124.959ZM106.803 40.0176C108.373 40.0176 109.791 39.6577 111.056 38.938C112.342 38.1965 113.346 37.1496 114.065 35.7974C114.807 34.4233 115.178 32.8312 115.178 31.021C115.178 29.2108 114.807 27.6187 114.065 26.2446C113.324 24.8706 112.321 23.8237 111.056 23.104C109.791 22.3625 108.373 21.9917 106.803 21.9917C105.211 21.9917 103.782 22.3516 102.517 23.0713C101.252 23.791 100.249 24.8379 99.5073 26.2119C98.7658 27.5641 98.395 29.1672 98.395 31.021C98.395 32.853 98.7658 34.4561 99.5073 35.8301C100.249 37.1823 101.252 38.2183 102.517 38.938C103.782 39.6577 105.211 40.0176 106.803 40.0176ZM167.227 -2.25V48H157.118L156.889 44.1724C155.973 45.6772 154.599 46.8332 152.767 47.6401C150.935 48.4253 148.863 48.8179 146.551 48.8179C143.498 48.8179 140.717 48.109 138.209 46.6914C135.701 45.2738 133.705 43.2236 132.222 40.541C130.739 37.8366 129.998 34.6632 129.998 31.021C129.998 27.3787 130.739 24.2163 132.222 21.5337C133.705 18.8293 135.701 16.7682 138.209 15.3506C140.717 13.9111 143.498 13.1914 146.551 13.1914C148.71 13.1914 150.673 13.5513 152.44 14.271C154.228 14.9689 155.602 15.994 156.562 17.3462V-2.25H167.227ZM149.07 40.0176C150.641 40.0176 152.058 39.6577 153.323 38.938C154.61 38.2183 155.613 37.1823 156.333 35.8301C157.075 34.4561 157.445 32.853 157.445 31.021C157.445 29.1672 157.075 27.5641 156.333 26.2119C155.613 24.8379 154.61 23.791 153.323 23.0713C152.058 22.3516 150.641 21.9917 149.07 21.9917C147.478 21.9917 146.05 22.3516 144.785 23.0713C143.52 23.791 142.516 24.8379 141.775 26.2119C141.033 27.5641 140.663 29.1672 140.663 31.021C140.663 32.853 141.033 34.4561 141.775 35.8301C142.516 37.1823 143.52 38.2183 144.785 38.938C146.05 39.6577 147.478 40.0176 149.07 40.0176ZM208.513 33.0166H183.683C183.901 35.3939 184.74 37.2041 186.202 38.4473C187.685 39.6904 189.517 40.312 191.698 40.312C193.29 40.312 194.653 39.974 195.787 39.2979C196.943 38.5999 197.805 37.5749 198.372 36.2227L208.186 37.564C207.466 39.8976 206.321 41.9041 204.751 43.5835C203.181 45.241 201.283 46.506 199.059 47.3784C196.834 48.229 194.402 48.6543 191.763 48.6543C187.968 48.6543 184.664 47.9564 181.851 46.5605C179.059 45.1647 176.9 43.1364 175.373 40.4756C173.868 37.8148 173.116 34.6414 173.116 30.9556C173.116 27.2697 173.879 24.0854 175.406 21.4028C176.932 18.7202 179.07 16.6701 181.818 15.2524C184.588 13.8348 187.783 13.126 191.403 13.126C194.784 13.126 197.761 13.7476 200.334 14.9907C202.908 16.2339 204.925 18.1532 206.387 20.7485C207.87 23.3439 208.622 26.5936 208.644 30.4976L208.513 33.0166ZM191.469 20.585C187.456 20.585 184.98 22.3407 184.042 25.8521H198.077C197.75 24.1509 196.987 22.8532 195.787 21.959C194.609 21.043 193.17 20.585 191.469 20.585ZM256.866 13.1914C260.726 13.1914 263.747 14.1183 265.928 15.9722C268.131 17.8042 269.232 20.4323 269.232 23.8564V48H258.567V26.9316C258.567 25.2087 258.087 23.911 257.127 23.0386C256.19 22.1444 255.001 21.6973 253.562 21.6973C251.751 21.6973 250.268 22.2861 249.112 23.4639C247.956 24.6416 247.378 26.5936 247.378 29.3198V48H236.583V26.9971C236.583 25.2305 236.103 23.911 235.143 23.0386C234.205 22.1444 232.995 21.6973 231.512 21.6973C229.723 21.6973 228.24 22.3188 227.062 23.562C225.907 24.8052 225.329 26.9207 225.329 29.9087V48H214.729V13.8457H225.329V17.8042C226.506 16.2993 227.957 15.1543 229.68 14.3691C231.403 13.584 233.311 13.1914 235.405 13.1914C237.957 13.1914 240.148 13.6167 241.98 14.4673C243.834 15.3179 245.219 16.5501 246.135 18.1641C247.378 16.5065 248.905 15.2633 250.715 14.4346C252.526 13.6058 254.576 13.1914 256.866 13.1914ZM311.303 13.8457V45.8408C311.303 52.2965 309.809 56.953 306.821 59.8101C303.833 62.6672 299.439 64.0957 293.637 64.0957C288.686 64.0957 284.826 63.2233 282.056 61.4785C279.286 59.7337 277.312 57.3346 276.135 54.2812L285.426 50.5845C285.884 52.0239 286.462 53.1471 287.16 53.9541C287.879 54.7611 288.752 55.3281 289.777 55.6553C290.824 55.9824 292.111 56.146 293.637 56.146C295.971 56.146 297.705 55.568 298.839 54.4121C299.995 53.2562 300.573 51.3587 300.573 48.7197V43.8452C299.33 45.1974 297.792 46.2443 295.96 46.9858C294.15 47.7274 292.132 48.0981 289.908 48.0981C285.655 48.0981 282.416 47.0731 280.191 45.0229C277.989 42.9728 276.887 40.0503 276.887 36.2554V13.8457H287.618V33.9653C287.618 35.9064 288.141 37.335 289.188 38.251C290.257 39.1452 291.631 39.5923 293.31 39.5923C295.447 39.5923 297.192 38.9816 298.544 37.7603C299.897 36.5389 300.573 34.4888 300.573 31.6099V13.8457H311.303Z" fill="#383030"/>
<path d="M26.632 12L47.264 47.7355H6L26.632 12Z" fill="#EC5212"/>
</g>
<defs>
<clipPath id="clip0_10_11">
<rect width="312" height="68" fill="white"/>
</clipPath>
</defs>
</svg>
