<svg xmlns="http://www.w3.org/2000/svg" viewBox="0 0 12.9 15" xml:space="preserve">
  <path fill="#383030" d="M12.9 8.5c0-.5-.1-1.2-.6-1.7-.3-.3-.6-.5-.9-.6V4.9c0-1.6 0-2.4-.4-3.2-.3-.5-.7-.9-1.2-1.2C8.9 0 8 0 6.5 0 4.9 0 4 0 3.2.4c-.5.3-.9.8-1.2 1.3-.4.7-.4 1.6-.4 3.2v1.3c-.4.1-.7.3-.9.6C.2 7.3.1 8 0 8.5c0 .8-.1 1.5.4 2 .3.3.7.5 1.1.5v3c0 .6.4 1 1 1s1-.4 1-1v-2.9h5.8V14c0 .6.4 1 1 1s1-.4 1-1v-2.9c.4-.1.8-.2 1.1-.5.6-.6.5-1.3.5-2.1zM3.6 4.9c0-1.2 0-1.9.2-2.2.1-.2.2-.4.4-.5C4.5 2 5.3 2 6.5 2s1.9 0 2.2.2c.2.1.3.3.5.5.2.3.2 1 .2 2.2V6H3.6V4.9zM2 8.6c0-.4.1-.5.1-.5.2-.1 1-.1 1.6-.1h5.4c.7 0 1.5 0 1.6.1 0 0 .1.2.1.5v.5H2v-.5z"/>
</svg>
