<svg width="13" height="16" fill="none" xmlns="http://www.w3.org/2000/svg">
  <path fill-rule="evenodd" clip-rule="evenodd" d="m6.98 13.5-1.26 1.553-.004-.003-.005-.004-.014-.012-.045-.038a17.628 17.628 0 0 1-.665-.593 19.06 19.06 0 0 1-1.539-1.621C2.412 11.546.98 9.495.98 7.214c0-1.92.58-3.61 1.703-4.842C3.811 1.132 5.36.5 6.98.5c1.622 0 3.17.633 4.298 1.872C12.4 3.605 12.98 5.294 12.98 7.214c0 2.281-1.43 4.332-2.468 5.568a19.053 19.053 0 0 1-2.203 2.214l-.045.038-.014.012-.005.004-.004.003-1.26-1.553Zm1.261 1.553L6.981 13.5s-4-3.248-4-6.286c0-3.037 1.818-4.714 4-4.714 2.181 0 4 1.677 4 4.714 0 3.038-4 6.286-4 6.286L5.72 15.053a2 2 0 0 0 2.521 0ZM5.981 6.5a1 1 0 1 1 2 0 1 1 0 0 1-2 0Zm1 3a3 3 0 1 0 0-6 3 3 0 0 0 0 6Z" fill="#383030"/>
</svg>
