<svg width="74" height="75" viewBox="0 0 74 75" fill="none" xmlns="http://www.w3.org/2000/svg">
<path d="M37 16.3608C38.5548 16.3608 40.1021 16.9609 41.2867 18.1611L56.0868 33.1566C58.4559 35.5571 58.4559 39.4429 56.0868 41.8434L41.2867 56.8389C40.1021 58.0391 38.5474 58.6392 37 58.6392C35.4526 58.6392 33.8979 58.0391 32.7133 56.8389L17.9133 41.8434C15.5441 39.4429 15.5441 35.5571 17.9133 33.1566L32.7133 18.1611C33.8979 16.9609 35.4526 16.3608 37 16.3608ZM37 0C31.0696 0 25.4872 2.34047 21.2967 6.59382L6.49675 21.5893C-2.16558 30.3661 -2.16558 44.6414 6.49675 53.4107L21.2967 68.4062C25.4946 72.6595 31.0696 75 37 75C42.9304 75 48.5054 72.6595 52.7033 68.4137L67.5033 53.4182C76.1656 44.6414 76.1656 30.3661 67.5033 21.5968L52.7033 6.60132C48.5054 2.34797 42.9304 0.00750024 37 0.00750024V0Z" fill="#40C3A4"/>
</svg>
