<svg width="21" height="19" viewBox="0 0 21 19" fill="none" xmlns="http://www.w3.org/2000/svg">
<path d="M4.40714 2.09969C4.40684 2.65628 4.1744 3.18996 3.76095 3.58334C3.34749 3.97671 2.78689 4.19755 2.20247 4.19727C1.61804 4.19699 1.05767 3.97562 0.644631 3.58185C0.231589 3.18809 -0.000291935 2.65418 2.75844e-07 2.09759C0.000292487 1.54099 0.232734 1.00731 0.646189 0.613934C1.05965 0.220561 1.62025 -0.000278034 2.20467 2.62709e-07C2.78909 0.000278559 3.34946 0.221651 3.7625 0.615418C4.17555 1.00919 4.40743 1.54309 4.40714 2.09969ZM4.47324 5.75131H0.0661072V18.8888H4.47324V5.75131ZM11.4365 5.75131H7.05142V18.8888H11.3924V11.9948C11.3924 8.15425 16.648 7.79748 16.648 11.9948V18.8888H21V10.5677C21 4.09339 13.2214 4.33473 11.3924 7.51417L11.4365 5.75131Z" fill="#383030"/>
</svg>
