<svg width="31" height="24" viewBox="0 0 31 24" fill="none" xmlns="http://www.w3.org/2000/svg">
<path d="M15.5 0C16.8252 0 18.1846 0.0330001 19.5021 0.0870001L21.0583 0.159L22.5479 0.2445L23.9429 0.336L25.2169 0.432C26.5996 0.534417 27.9007 1.10542 28.8913 2.04456C29.8818 2.9837 30.4985 4.23081 30.6327 5.5665L30.6946 6.204L30.8109 7.569C30.9194 8.9835 31 10.5255 31 12C31 13.4745 30.9194 15.0165 30.8109 16.431L30.6946 17.796C30.6745 18.015 30.6544 18.2265 30.6327 18.4335C30.4984 19.7694 29.8816 21.0167 28.8907 21.9559C27.8998 22.8951 26.5984 23.4659 25.2154 23.568L23.9444 23.6625L22.5494 23.7555L21.0583 23.841L19.5021 23.913C18.1688 23.9691 16.8345 23.9981 15.5 24C14.1655 23.9981 12.8312 23.9691 11.4979 23.913L9.9417 23.841L8.45215 23.7555L7.05715 23.6625L5.78305 23.568C4.40037 23.4656 3.09931 22.8946 2.10873 21.9554C1.11816 21.0163 0.50154 19.7692 0.36735 18.4335L0.30535 17.796L0.1891 16.431C0.0705832 14.9567 0.00750823 13.4787 0 12C0 10.5255 0.0806 8.9835 0.1891 7.569L0.30535 6.204C0.3255 5.985 0.34565 5.7735 0.36735 5.5665C0.501488 4.23105 1.11789 2.98412 2.10814 2.04501C3.0984 1.10591 4.3991 0.534754 5.7815 0.432L7.05405 0.336L8.44905 0.2445L9.94015 0.159L11.4963 0.0870001C12.8301 0.0309494 14.165 0.00194293 15.5 0ZM15.5 3C14.2212 3 12.9053 3.033 11.625 3.084L10.1091 3.1545L8.65365 3.237L7.28655 3.327L6.03415 3.4215C5.37591 3.4667 4.75547 3.73597 4.28279 4.18159C3.81012 4.62721 3.51575 5.2204 3.45185 5.856C3.2705 7.6695 3.1 9.927 3.1 12C3.1 14.073 3.2705 16.3305 3.45185 18.144C3.5836 19.452 4.6562 20.469 6.03415 20.5785L7.28655 20.6715L8.65365 20.7615L10.1091 20.8455L11.625 20.916C12.9053 20.967 14.2212 21 15.5 21C16.7787 21 18.0947 20.967 19.375 20.916L20.8909 20.8455L22.3463 20.763L23.7134 20.673L24.9658 20.5785C25.6241 20.5333 26.2445 20.264 26.7172 19.8184C27.1899 19.3728 27.4843 18.7796 27.5482 18.144C27.7295 16.3305 27.9 14.073 27.9 12C27.9 9.927 27.7295 7.6695 27.5482 5.856C27.4843 5.2204 27.1899 4.62721 26.7172 4.18159C26.2445 3.73597 25.6241 3.4667 24.9658 3.4215L23.7134 3.3285L22.3463 3.2385L20.8909 3.1545L19.375 3.084C18.0841 3.03025 16.7921 3.00224 15.5 3ZM12.4 8.3625C12.3999 8.21589 12.4368 8.07149 12.5075 7.94183C12.5782 7.81218 12.6806 7.7012 12.8057 7.61855C12.9308 7.5359 13.0749 7.48409 13.2255 7.46761C13.376 7.45113 13.5284 7.47049 13.6694 7.524L13.795 7.584L20.305 11.22C20.4346 11.2924 20.5443 11.394 20.6247 11.5162C20.7051 11.6383 20.7538 11.7775 20.7667 11.9218C20.7797 12.0661 20.7564 12.2113 20.699 12.345C20.6415 12.4787 20.5516 12.5971 20.4368 12.69L20.305 12.78L13.795 16.4175C13.6638 16.491 13.516 16.5324 13.3646 16.538C13.2131 16.5436 13.0625 16.5133 12.9258 16.4497C12.7892 16.3861 12.6708 16.2912 12.5807 16.1731C12.4907 16.0551 12.4318 15.9176 12.4093 15.7725L12.4 15.6375V8.3625Z" fill="#383030"/>
</svg>
