<svg width="100" height="30" viewBox="0 0 100 30" fill="none" xmlns="http://www.w3.org/2000/svg">
<g clip-path="url(#clip0_11_18)">
<path d="M17 6L30 29H4L17 6Z" fill="#EC5212"/>
<path d="M95.75 22C93.6828 22 92 23.681 92 25.7494C92 27.8177 93.6828 29.4987 95.75 29.4987C97.8172 29.4987 99.5 27.8177 99.5 25.7494C99.5 23.681 97.8172 22 95.75 22Z" fill="#383030"/>
<path d="M44.6406 24.3125V29H32.4062V6.21875H37.7344V24.3125H44.6406ZM69.2656 16.3906C69.3281 16.9323 69.3594 17.4635 69.3594 17.9844C69.3594 20.3281 68.901 22.349 67.9844 24.0469C67.0677 25.7448 65.7344 27.0469 63.9844 27.9531C62.2344 28.8594 60.1302 29.3125 57.6719 29.3125C55.474 29.3125 53.5052 28.8333 51.7656 27.875C50.0365 26.9062 48.6823 25.5417 47.7031 23.7812C46.724 22.0208 46.2344 19.9844 46.2344 17.6719C46.2344 15.3281 46.7344 13.2656 47.7344 11.4844C48.7448 9.70312 50.1406 8.32812 51.9219 7.35938C53.7031 6.39062 55.724 5.90625 57.9844 5.90625C60.2135 5.90625 62.2083 6.38021 63.9688 7.32812C65.7292 8.26562 67.1094 9.58333 68.1094 11.2812L63.4531 13.7656C62.9115 12.6823 62.1667 11.8646 61.2188 11.3125C60.2812 10.7604 59.2031 10.4844 57.9844 10.4844C56.7448 10.4844 55.6406 10.7656 54.6719 11.3281C53.7031 11.8802 52.9427 12.6875 52.3906 13.75C51.8385 14.8021 51.5625 16.0625 51.5625 17.5312C51.5625 18.9583 51.8281 20.2188 52.3594 21.3125C52.8906 22.3958 53.651 23.2396 54.6406 23.8438C55.6406 24.4375 56.8177 24.7344 58.1719 24.7344C59.0677 24.7344 59.9219 24.5938 60.7344 24.3125C61.5469 24.0208 62.25 23.5677 62.8438 22.9531C63.4375 22.3385 63.8385 21.5625 64.0469 20.625H58.2344V16.3906H69.2656Z" fill="#383030"/>
<path fill-rule="evenodd" clip-rule="evenodd" d="M93 19.8482C92.6716 20.747 92.1568 21.59 91.4389 22.3102L86.8113 26.9551C85.5257 28.2447 83.8171 28.9565 81.9999 28.9565C80.1829 28.9565 78.4743 28.2447 77.1887 26.9551L72.5611 22.3102C71.8459 21.59 71.3284 20.747 71 19.8482L71.0167 15.0665C71.345 14.1845 71.8571 13.3553 72.5638 12.6464L77.1914 8.00143C78.4771 6.7118 80.1856 6 82.0028 6C83.8198 6 85.5284 6.7118 86.814 8.00143L91.4417 12.6464C92.1457 13.3526 92.6577 14.1816 92.9889 15.0637L93 19.8482ZM87.8121 15.6415L83.7855 11.5995C83.3041 11.1166 82.6613 10.8487 81.9796 10.8487C81.2978 10.8487 80.655 11.1166 80.1736 11.5995L76.147 15.6415C75.1535 16.6408 75.1535 18.2626 76.147 19.2619L80.1736 23.3039C80.655 23.7868 81.2978 24.0547 81.9796 24.0547C82.6613 24.0547 83.3041 23.7868 83.7855 23.3039L87.8121 19.2619C88.8055 18.2626 88.8055 16.6408 87.8121 15.6415Z" fill="#383030"/>
</g>
<defs>
<clipPath id="clip0_11_18">
<rect width="100" height="30" fill="white"/>
</clipPath>
</defs>
</svg>
