<svg width="87" height="30" viewBox="0 0 87 30" fill="none" xmlns="http://www.w3.org/2000/svg">
<path d="M82.4857 22.4961C80.4188 22.4961 78.7363 24.1771 78.7363 26.2455C78.7363 28.3138 80.4188 29.9948 82.4857 29.9948C84.5526 29.9948 86.2351 28.3138 86.2351 26.2455C86.2351 24.1771 84.5526 22.4961 82.4857 22.4961Z" fill="#383030"/>
<path fill-rule="evenodd" clip-rule="evenodd" d="M63.4575 9.0074C65.7656 9.0074 67.9004 9.75941 69.6351 11.029V0H74.0674V29.5943H69.6351V27.9765C67.9 29.2473 65.7642 30 63.455 30C58.418 30 54.1975 26.4226 53.1972 21.6739H45.7132C45.4121 22.4955 44.94 23.2661 44.2817 23.9245L40.0383 28.1705C38.8594 29.3493 37.2927 30 35.6264 30C33.9602 30 32.3935 29.3493 31.2146 28.1705L26.9712 23.9245C26.3154 23.2661 25.8408 22.4955 25.5397 21.6739H17.9893V29.5917H13.557V18.5507C13.557 15.2003 12.123 13.5009 9.16815 13.5009C6.21332 13.5009 4.45011 15.504 4.45011 18.8594V29.5917H0V9.40036H4.45267V12.4113L4.68487 12.0898C6.1087 10.1072 8.19342 9.01506 10.5588 9.01506C15.282 9.01506 17.9918 11.9597 17.9918 17.0936V17.3029H25.555C25.8561 16.4966 26.3256 15.7387 26.9737 15.0906L31.2171 10.8446C32.396 9.66573 33.9627 9.01506 35.629 9.01506C37.2952 9.01506 38.8619 9.66573 40.0408 10.8446L44.2843 15.0906C44.9298 15.7362 45.3993 16.494 45.703 17.3003H53.2074C54.2205 12.567 58.4307 9.0074 63.4575 9.0074ZM63.4566 13.4648C60.1292 13.4648 57.4219 16.1722 57.4219 19.4995C57.4219 22.8269 60.1292 25.5342 63.4566 25.5342C66.784 25.5342 69.4913 22.8269 69.4913 19.4995C69.4913 16.1722 66.784 13.4648 63.4566 13.4648ZM37.2637 14.1337L40.956 17.8285C41.8669 18.742 41.8669 20.2245 40.956 21.138L37.2637 24.8328C36.8223 25.2743 36.2328 25.5192 35.6077 25.5192C34.9825 25.5192 34.3931 25.2743 33.9517 24.8328L30.2594 21.138C29.3484 20.2245 29.3484 18.742 30.2594 17.8285L33.9517 14.1337C34.3931 13.6922 34.9825 13.4473 35.6077 13.4473C36.2328 13.4473 36.8223 13.6922 37.2637 14.1337Z" fill="#383030"/>
</svg>
