<?xml version="1.0" encoding="UTF-8"?>
<svg xmlns="http://www.w3.org/2000/svg" width="600" height="155">
  <g transform="matrix(1 0 0 -1 0 154.155)" fill-rule="nonzero" fill="none">
    <path d="M599.912 14.216c0-7.631-6.186-13.819-13.82-13.819-7.628 0-13.818 6.188-13.818 13.82 0 7.632 6.19 13.819 13.819 13.819 7.633 0 13.819-6.187 13.819-13.82" fill="#F78D2F"></path>
    <path d="M213.552 77.495c-5.242 0-10.17.943-14.783 2.83-4.614 1.887-8.616 4.525-12.005 7.916-3.391 3.39-6.081 7.409-8.073 12.058-1.993 4.648-2.989 9.699-2.989 15.15v.21c0 5.311.978 10.292 2.936 14.941 1.956 4.648 4.648 8.702 8.073 12.162 3.424 3.46 7.497 6.169 12.215 8.126 4.718 1.957 9.872 2.936 15.465 2.936 3.775 0 7.198-.367 10.275-1.101 3.075-.734 5.888-1.783 8.44-3.146a33.752 33.752 0 0 0 6.92-4.875 40.19 40.19 0 0 0 5.505-6.186l-15.308-11.848c-2.097 2.656-4.404 4.753-6.92 6.29s-5.557 2.308-9.122 2.308c-2.587 0-4.946-.508-7.077-1.52a16.944 16.944 0 0 1-5.504-4.142c-1.539-1.747-2.744-3.81-3.618-6.186-.875-2.377-1.31-4.893-1.31-7.55v-.209c0-2.726.435-5.295 1.31-7.706.874-2.412 2.08-4.493 3.618-6.239a16.897 16.897 0 0 1 5.504-4.141c2.131-1.014 4.49-1.52 7.077-1.52 1.887 0 3.617.21 5.19.628 1.573.42 3.005 1.03 4.3 1.835a23.361 23.361 0 0 1 3.669 2.831 42.502 42.502 0 0 1 3.407 3.617l15.308-10.903a54.682 54.682 0 0 0-5.714-6.606 32.881 32.881 0 0 0-7.025-5.243c-2.621-1.467-5.557-2.62-8.807-3.46-3.25-.838-6.904-1.257-10.957-1.257" fill="#2E2B2D"></path>
    <polyline fill="#2E2B2D" points="295.542597 152.880347 275.936416 152.880347 244.691825 78.9624676 266.080346 78.9624676 285.582332 128.660038 304.9788 78.9624676 326.787188 78.9624676 295.542597 152.880347"></polyline>
    <polyline fill="#2E2B2D" points="400.913455 152.356285 459.836632 152.356285 459.836632 135.056064 420.940386 135.056064 420.940386 123.942599 456.167758 123.942599 456.167758 107.900657 420.940386 107.900657 420.940386 96.2622465 460.362019 96.2622465 460.362019 78.9624676 400.913455 78.9624676 400.913455 152.356285"></polyline>
    <polyline fill="#2E2B2D" points="466.653409 152.356285 525.576145 152.356285 525.576145 135.056064 486.679899 135.056064 486.679899 123.942599 521.907271 123.942599 521.907271 107.900657 486.679899 107.900657 486.679899 96.2622465 526.101531 96.2622465 526.101531 78.9624676 466.653409 78.9624676 466.653409 152.356285"></polyline>
    <polyline fill="#2E2B2D" points="401.549658 73.7907238 423.041931 73.7907238 440.551865 45.377038 458.061798 73.7907238 479.558486 73.7907238 479.558486 0.397348185 459.320076 0.397348185 459.320076 42.546133 440.604845 13.8176569 440.185419 13.8176569 421.576148 42.33642 421.576148 0.397348185 401.549658 0.397348185 401.549658 73.7907238"></polyline>
    <polyline fill="#2E2B2D" points="533.342149 74.3152271 513.735086 74.3152271 482.490053 0.397348185 503.880781 0.397348185 523.381885 50.0953602 542.777028 0.397348185 564.587182 0.397348185 533.342149 74.3152271"></polyline>
    <polyline fill="#2E2B2D" points="296.178358 74.3152271 276.572178 74.3152271 245.327587 0.397348185 266.716549 0.397348185 286.218535 50.0953602 305.615003 0.397348185 327.422949 0.397348185 296.178358 74.3152271"></polyline>
    <polyline fill="#2E2B2D" points="178.854741 73.7907238 178.854741 0.397348185 199.195138 0.397348185 199.195138 73.7907238 178.854741 73.7907238"></polyline>
    <polyline fill="#2E2B2D" points="222.993371 44.7302389 248.57836 73.7907238 224.463128 73.7907238 199.195138 44.0145656 225.092267 0.397348185 249.521847 0.397348185 222.993371 44.7302389"></polyline>
    <path d="M379.736 104.545c4.613 1.956 8.282 4.787 11.008 8.493 2.726 3.704 4.09 8.388 4.09 14.05v.21c0 7.197-2.168 12.895-6.501 17.09-2.448 2.516-5.628 4.472-9.541 5.871-3.916 1.397-8.703 2.097-14.365 2.097h-34.705V78.962h20.342V134.741h13.315c3.424 0 6.115-.717 8.074-2.15 1.956-1.432 2.935-3.616 2.935-6.552v-.21c0-2.657-.943-4.77-2.831-6.343-1.887-1.573-4.579-2.359-8.073-2.359h-13.42l23.694-38.165h23.487l-17.51 25.583" fill="#2E2B2D"></path>
    <path d="M380.372 25.98c4.613 1.956 8.282 4.787 11.008 8.493 2.726 3.704 4.089 8.388 4.089 14.05v.209c0 7.198-2.167 12.896-6.5 17.09-2.447 2.517-5.628 4.472-9.542 5.872-3.915 1.397-8.702 2.097-14.364 2.097H330.36V.397h20.34v55.78h13.316c3.424 0 6.116-.718 8.073-2.15 1.957-1.433 2.936-3.617 2.936-6.553v-.21c0-2.657-.943-4.77-2.831-6.343-1.887-1.573-4.579-2.36-8.073-2.36H350.7L374.394.398h23.486L380.37 25.98" fill="#2E2B2D"></path>
    <path d="M582.402 104.545c4.613 1.956 8.282 4.787 11.01 8.493 2.725 3.704 4.09 8.388 4.09 14.05v.21c0 7.197-2.169 12.895-6.5 17.09-2.45 2.516-5.629 4.472-9.545 5.871-3.912 1.397-8.702 2.097-14.362 2.097h-34.706V78.962h20.344V134.741h13.316c3.421 0 6.114-.717 8.07-2.15 1.956-1.432 2.936-3.616 2.936-6.552v-.21c0-2.657-.945-4.77-2.83-6.343-1.89-1.573-4.578-2.359-8.075-2.359h-13.417l23.695-38.165h23.484l-17.51 25.583" fill="#2E2B2D"></path>
    <path d="m29.596 16.254 24.37 40.523s21.52 44.809 46.47-1.934l15.374-26.046s3.543-6.099 7.222-12.543c17.954 13.946 29.51 35.738 29.51 60.233 0 42.099-34.129 76.226-76.228 76.226S.087 118.586.087 76.487c0-24.495 11.555-46.287 29.509-60.233" fill="#2E2B2D"></path>
    <path d="M109.583 7.975 99.02 23.838l-6.222 8.66s-6.658 8.74-12.263 9.632c0 0-8.438 2.89-17.606-7.26 0 0-6.661-8.657-7.373-9.944L43.894 7.483C53.734 2.853 64.72.26 76.314.26c11.946 0 23.248 2.75 33.312 7.648l-.043.067" fill="#F78D2F"></path>
  </g>
</svg>
