<?xml version="1.0" encoding="UTF-8"?>
<svg xmlns="http://www.w3.org/2000/svg" class="text-green fill-current" height="40" viewBox="0 0 121 45" width="108">
  <path d="M10.803 20.735c3.177 0 6.066-1.358 8.059-3.524l-4.102-3.582c-.953 1.213-2.368 2.022-3.957 2.022-2.715 0-5.026-2.369-5.026-5.2 0-2.801 2.31-5.17 5.026-5.17 1.56 0 3.004.809 3.928 2.022l4.131-3.61A11.027 11.027 0 0 0 10.803.196C4.94.197 0 4.877 0 10.451c0 5.575 4.94 10.284 10.803 10.284Zm19.96 0c5.863 0 10.803-4.709 10.803-10.284 0-5.574-4.94-10.254-10.803-10.254-5.864 0-10.803 4.68-10.803 10.254 0 5.575 4.939 10.284 10.803 10.284Zm0-5.084c-2.716 0-5.026-2.369-5.026-5.2 0-2.801 2.31-5.17 5.026-5.17 2.715 0 5.026 2.369 5.026 5.17 0 2.831-2.311 5.2-5.026 5.2Zm22.761 5.084c5.546 0 9.446-3.784 9.446-9.157V.544h-5.604v10.745c0 2.542-1.589 4.362-3.842 4.362s-3.842-1.82-3.842-4.362V.544H44.08v11.034c0 5.373 3.9 9.157 9.445 9.157Zm18.313-.347v-5.98h1.733l4.189 5.98h6.383l-4.737-6.73c2.427-1.127 3.929-3.351 3.929-6.182 0-4.073-3.149-6.932-7.597-6.932h-9.503v19.844h5.603Zm3.438-11.063h-3.438V5.628h3.438c1.328 0 2.282.78 2.282 1.848 0 1.069-.954 1.849-2.282 1.849Zm19.064 11.41c4.968 0 8.174-2.456 8.174-6.644 0-3.784-2.888-5.026-7.51-6.008-2.83-.607-3.524-.925-3.524-1.935 0-.751.665-1.3 2.022-1.3 1.791 0 3.813.664 5.662 1.993l2.802-3.958C99.769 1.122 97.083.198 93.645.198c-4.707 0-7.827 2.571-7.827 6.528 0 4.13 3.322 5.257 7.626 6.24 2.744.635 3.437.78 3.437 1.732 0 .867-.809 1.387-2.34 1.387-2.34 0-4.535-.838-6.557-2.426l-3.12 3.726c2.514 2.224 5.893 3.35 9.475 3.35ZM121 20.387V15.39h-10.37v-2.629h9.446V7.765h-9.446V5.541H121V.544h-15.973v19.844H121Z" fill="#50922f"></path>
  <path d="M6.445 44.218v-6.092h1.761l4.256 6.092h6.487l-4.814-6.857c2.466-1.148 3.992-3.414 3.992-6.299 0-4.15-3.2-7.063-7.72-7.063H.752v20.22h5.694ZM10 32.953H6.528v-3.755H10c1.342 0 2.305.792 2.305 1.878 0 1.085-.963 1.877-2.305 1.877Zm27.435 11.265v-5.092h-10.5v-2.678h9.564v-5.091h-9.565V29.09h10.501V24H21.26v20.22h16.176Zm8.568 0v-6.092h3.952c4.509 0 7.7-2.914 7.7-7.064S54.464 24 49.955 24h-9.631v20.22h5.68Zm3.57-11.265H46.1v-3.755h3.472c1.342 0 2.305.792 2.305 1.878 0 1.085-.963 1.877-2.305 1.877Zm20.502 11.554c5.958 0 10.977-4.768 10.977-10.413 0-5.646-5.019-10.384-10.977-10.384-5.957 0-10.976 4.738-10.976 10.384 0 5.645 5.019 10.413 10.976 10.413Zm.145-5.2c-2.731 0-5.055-2.374-5.055-5.213 0-2.81 2.324-5.185 5.055-5.185 2.73 0 5.055 2.375 5.055 5.185 0 2.839-2.324 5.214-5.055 5.214Zm19.414 4.911v-6.092h1.761l4.256 6.092h6.487l-4.814-6.857c2.466-1.148 3.992-3.414 3.992-6.299 0-4.15-3.2-7.063-7.72-7.063H83.94v20.22h5.694Zm3.555-11.265h-3.472v-3.755h3.472c1.343 0 2.305.792 2.305 1.878 0 1.085-.963 1.877-2.305 1.877Zm21.763 11.265V29.09h5.961V24h-17.62v5.091h5.962v15.128h5.697Z" fill="#50922f"></path>
</svg>
